# xmcd CD database file
#
# Track frame offsets:
#	150
#	23383
#	60026
#	109592
#	137182
#	161419
#	181274
#
# Disc length: 2905 seconds
#
# Revision: 0
# Processed by: cddbd v1.5.2PL0 Copyright (c) Steve Scherf et al.
# Submitted via: CDex 1.70beta3
#
DISCID=460b5707
DTITLE=Kondo Toshinori - Berlin Solo Live 1995 at Tacheles
DYEAR=1995
DGENRE=Jazz
TTITLE0=Over the Horizon
TTITLE1=Out of Nowhere
TTITLE2=Calling from Whom
TTITLE3=Where is Here
TTITLE4=Strange Voice
TTITLE5=Another Zone
TTITLE6=The Ancient Field
EXTD=YEAR: 1995
EXTT0=
EXTT1=
EXTT2=
EXTT3=
EXTT4=
EXTT5=
EXTT6=
PLAYORDER=
